<?xml version="1.0" standalone="no"?>
<!DOCTYPE svg PUBLIC "-//W3C//DTD SVG 20010904//EN"
 "http://www.w3.org/TR/2001/REC-SVG-20010904/DTD/svg10.dtd">
<svg version="1.0" xmlns="http://www.w3.org/2000/svg"
 width="600.000000pt" height="600.000000pt" viewBox="0 0 600.000000 600.000000"
 preserveAspectRatio="xMidYMid meet">

<g transform="translate(0.000000,600.000000) scale(0.100000,-0.100000)"
fill="#000000" stroke="none">
<path d="M3594 2715 c-5 -12 -29 -15 -129 -15 -145 0 -196 -14 -316 -86 -143
-86 -238 -214 -295 -397 -13 -41 -22 -56 -32 -52 -7 3 -22 5 -32 5 -14 0 -24
17 -40 68 -57 173 -148 285 -271 332 -53 20 -85 25 -188 27 -68 2 -127 5 -129
8 -3 3 -20 5 -38 5 -23 0 -38 -7 -52 -24 -10 -14 -45 -34 -76 -45 -136 -48
-222 -147 -263 -304 -20 -78 -13 -281 15 -409 11 -49 17 -88 15 -88 -8 0 -111
80 -168 131 -148 133 -278 288 -387 464 -62 100 -139 249 -158 308 -6 21 -14
36 -16 34 -3 -2 6 -34 20 -71 14 -36 24 -66 22 -66 -2 0 16 -62 41 -137 24
-76 51 -163 59 -193 8 -30 21 -68 28 -85 23 -49 34 -79 40 -105 4 -14 13 -50
22 -80 8 -30 18 -64 20 -75 3 -11 7 -49 10 -85 2 -36 5 -76 7 -90 2 -14 -1
-38 -6 -55 -21 -71 3 -99 105 -120 66 -14 75 -14 142 4 71 20 287 63 381 76
l49 7 -39 24 -40 24 35 -6 c19 -3 51 -10 70 -15 19 -5 45 -9 57 -9 19 0 21 4
16 40 l-6 40 72 0 71 0 0 -40 c0 -37 2 -40 23 -36 12 3 42 7 67 11 64 8 120
27 114 36 -3 5 2 9 10 9 20 0 23 6 31 64 l8 49 -27 -7 c-31 -8 -34 -1 -5 14
15 8 24 8 34 0 13 -11 13 -28 -1 -99 -4 -17 -1 -22 8 -18 7 3 22 8 33 13 11 4
-15 -26 -58 -67 -65 -62 -77 -79 -77 -106 0 -42 36 -68 81 -59 31 6 143 79
168 110 34 41 89 14 278 -131 70 -54 140 -106 154 -115 38 -24 126 -48 177
-48 55 0 152 25 206 52 69 35 206 131 308 216 105 87 100 85 251 96 67 5 68 5
46 -13 -22 -18 -22 -18 52 -25 65 -6 331 -47 399 -61 15 -3 19 -2 10 2 -8 5
-16 22 -18 38 -1 17 -5 37 -9 45 -5 13 -11 50 -14 85 -2 33 9 144 17 156 4 8
10 19 11 24 10 41 39 113 52 130 9 11 -33 -27 -94 -84 -103 -98 -234 -205
-241 -198 -2 2 1 29 6 60 5 32 12 124 16 205 8 168 -2 226 -61 350 -40 85
-105 152 -207 213 -66 40 -186 88 -220 89 -11 0 -18 8 -18 18 0 11 -8 26 -18
35 -24 22 -100 23 -108 2z m-1571 -824 c26 -27 49 -62 52 -78 4 -15 10 -38 15
-50 7 -17 6 -23 -3 -23 -24 1 -248 37 -251 41 -11 11 114 159 134 159 4 0 28
-22 53 -49z"/>
<path d="M2158 1613 c6 -2 18 -2 25 0 6 3 1 5 -13 5 -14 0 -19 -2 -12 -5z"/>
</g>
</svg>
