<?xml version="1.0" encoding="UTF-8"?>
<svg version="1.1" xmlns="http://www.w3.org/2000/svg" width="38" height="23">
<path d="M0 0 C12.54 0 25.08 0 38 0 C38 7.59 38 15.18 38 23 C25.46 23 12.92 23 0 23 C0 15.41 0 7.82 0 0 Z " fill="#F1F1F1" transform="translate(0,0)"/>
<path d="M0 0 C2.66666667 0 5.33333333 0 8 0 C8 0.66 8 1.32 8 2 C7.01 2.495 7.01 2.495 6 3 C6.99 3.33 7.98 3.66 9 4 C9.66 2.68 10.32 1.36 11 0 C11.99 0 12.98 0 14 0 C15 2 15 2 15 8 C9.39 8 3.78 8 -2 8 C-1 1 -1 1 0 0 Z " fill="#215299" transform="translate(16,8)"/>
<path d="M0 0 C0.66 0 1.32 0 2 0 C2.28875 0.61875 2.5775 1.2375 2.875 1.875 C3.93720042 4.13325765 3.93720042 4.13325765 6 6 C5.01 6.495 5.01 6.495 4 7 C3.34 6.67 2.68 6.34 2 6 C2 6.66 2 7.32 2 8 C0.68 8 -0.64 8 -2 8 C-1.125 1.125 -1.125 1.125 0 0 Z " fill="#CBDCE9" transform="translate(16,8)"/>
<path d="M0 0 C0.66 0 1.32 0 2 0 C1.45276317 3.37462715 0.9451 5.08235 -1 8 C-1.66 8 -2.32 8 -3 8 C-3.66 5.69 -4.32 3.38 -5 1 C-3.515 1.99 -3.515 1.99 -2 3 C-1.34 2.01 -0.68 1.02 0 0 Z " fill="#2B5397" transform="translate(12,8)"/>
<path d="M0 0 C1.32 0 2.64 0 4 0 C4 0.66 4 1.32 4 2 C3.01 2.495 3.01 2.495 2 3 C2.33 4.32 2.66 5.64 3 7 C1.35 7.33 -0.3 7.66 -2 8 C-2 7.34 -2 6.68 -2 6 C-1.01 6 -0.02 6 1 6 C0.34 5.34 -0.32 4.68 -1 4 C-0.625 1.875 -0.625 1.875 0 0 Z " fill="#214A94" transform="translate(20,8)"/>
<path d="M0 0 C0 1.32 0 2.64 0 4 C-1.65 4.33 -3.3 4.66 -5 5 C-5.33 3.68 -5.66 2.36 -6 1 C-3.92446352 0.4465236 -2.15634036 0 0 0 Z " fill="#5581B4" transform="translate(29,11)"/>
<path d="M0 0 C0.66 0.33 1.32 0.66 2 1 C1.1875 4.4375 1.1875 4.4375 0 8 C-0.99 8.33 -1.98 8.66 -3 9 C-2.01 6.03 -1.02 3.06 0 0 Z " fill="#D6E1EC" transform="translate(14,8)"/>
<path d="M0 0 C0.33 0 0.66 0 1 0 C1 2.64 1 5.28 1 8 C0.01 8 -0.98 8 -2 8 C-1.125 1.125 -1.125 1.125 0 0 Z " fill="#345EA0" transform="translate(16,8)"/>
</svg>
